# Blender v2.93.4 OBJ File: 'island.blend'
# www.blender.org
mtllib untitled.mtl
o Plane_Plane.003
v -18.644909 -19.657150 0.000000
v 19.559166 -19.044582 0.000000
v -24.278549 27.446676 0.000000
v 19.596888 18.467812 0.000000
v -32.853840 0.289698 0.000000
v 34.040024 0.399598 0.000000
v 2.137991 -27.264566 0.000000
v 0.884409 33.070034 0.000000
v 0.681165 0.155335 0.000000
v -27.778593 -11.282218 0.000000
v 10.796041 -25.114294 0.000000
v 29.222782 9.676158 0.000000
v -11.958286 33.568592 0.000000
v -31.642635 14.727469 0.000000
v 29.217995 -9.790538 0.000000
v -16.069824 0.187020 0.000000
v -8.023757 -25.192080 0.000000
v 10.730344 27.103386 0.000000
v 17.377110 0.241970 0.000000
v 1.253946 -14.069753 0.000000
v 0.627155 16.097546 0.000000
v 15.263064 13.547740 0.000000
v 15.297507 -12.641718 0.000000
v -13.168757 -13.361630 0.000000
v -15.254850 16.297602 0.000000
v -23.345011 -24.875328 -3.004191
v 24.347015 -24.110634 -3.004191
v -30.377760 33.926693 -3.004191
v 24.394106 22.717932 -3.003857
v -41.082714 0.025299 -3.004191
v 42.424191 0.162492 -3.004191
v 2.599307 -34.372040 -3.004191
v 1.034399 40.946594 -3.004191
v -34.747036 -14.420492 -3.003857
v 13.407576 -31.687756 -3.004191
v 36.410583 11.742879 -3.004191
v -14.997769 41.568977 -3.004191
v -39.570705 18.048677 -3.004191
v 36.404606 -12.558354 -3.004191
v -10.086105 -31.784857 -3.004191
v 13.325564 33.498146 -3.004191
v -138.401062 -2.795950 -18.095263
v -117.166069 -48.793777 -18.093271
v -78.950447 -82.083740 -18.095263
v 8.005891 -112.322876 -18.095263
v 44.231453 -103.775658 -18.095263
v 80.896660 -79.648819 -18.095263
v 141.485062 -2.359103 -18.095263
v 121.329544 34.514790 -18.095263
v 81.054482 69.461205 -18.093271
v 2.760863 127.504341 -18.095263
v -50.973392 129.486099 -18.095263
v -102.521774 105.151779 -18.095263
v -133.333328 54.593517 -18.095263
v 121.309509 -42.864422 -18.095263
v 1.910482 -3.330037 -18.095263
v -68.176208 -3.204091 -18.095263
v -34.511200 -104.084846 -18.095263
v 43.956573 103.787216 -18.095263
v 71.766853 -2.985666 -18.095263
v 4.307016 -59.874104 -18.095263
v 1.684502 60.039501 -18.095263
v 62.921627 49.904160 -18.095263
v 63.065735 -54.197731 -18.095263
v -56.038044 -57.059341 -18.095263
v -64.766327 60.834717 -18.095263
v -20.994961 -22.266239 -1.502095
v 21.953091 -21.577608 -1.502095
v -27.328152 30.686686 -1.502095
v 21.995495 20.592873 -1.501929
v -36.968277 0.157498 -1.502095
v 38.232105 0.281045 -1.502095
v 2.368649 -30.818302 -1.502095
v 0.959404 37.008316 -1.502095
v -31.262814 -12.851355 -1.501929
v 12.101809 -28.401026 -1.502095
v 32.816685 10.709517 -1.502095
v -13.478027 37.568787 -1.502095
v -35.606670 16.388073 -1.502095
v 32.811298 -11.174445 -1.502095
v -9.054931 -28.488468 -1.502095
v 12.027955 30.300766 -1.502095
vt 0.217438 0.742805
vt 0.223258 0.736413
vt 0.227652 0.741836
vt 0.223549 0.748358
vt 0.229070 0.730073
vt 0.230975 0.735113
vt 0.231061 0.741870
vt 0.231295 0.748297
vt 0.230157 0.754146
vt 0.207409 0.732739
vt 0.211231 0.730166
vt 0.217585 0.732750
vt 0.212170 0.737652
vt 0.216597 0.728887
vt 0.223505 0.728391
vt 0.203112 0.743352
vt 0.204692 0.737356
vt 0.207439 0.743437
vt 0.203166 0.749766
vt 0.211637 0.749256
vt 0.205845 0.755734
vt 0.218113 0.754538
vt 0.211815 0.760292
vt 0.225898 0.759256
vt 0.219270 0.761887
vt 0.160635 0.738508
vt 0.160914 0.764082
vt 0.024857 0.828268
vt 0.025983 0.743316
vt 0.195534 0.806019
vt 0.225250 0.812270
vt 0.232947 0.982469
vt 0.135619 0.964120
vt 0.177850 0.696223
vt 0.166879 0.714608
vt 0.048521 0.663124
vt 0.086125 0.601074
vt 0.171697 0.787887
vt 0.058470 0.906133
vt 0.251726 0.801881
vt 0.321026 0.945921
vt 0.268830 0.781514
vt 0.379141 0.877154
vt 0.272628 0.732744
vt 0.272169 0.705940
vt 0.396404 0.624940
vt 0.395552 0.714527
vt 0.264315 0.685770
vt 0.372775 0.558961
vt 0.242019 0.678835
vt 0.300105 0.538397
vt 0.214485 0.680701
vt 0.193094 0.685870
vt 0.137351 0.565586
vt 0.208695 0.546919
vt 0.273507 0.758199
vt 0.396403 0.799467
vt 0.157944 0.764365
vt 0.169313 0.789565
vt 0.163348 0.795677
vt 0.150581 0.767492
vt 0.157679 0.737287
vt 0.150250 0.737212
vt 0.192006 0.681581
vt 0.175867 0.692499
vt 0.170632 0.687146
vt 0.188682 0.674888
vt 0.214658 0.676140
vt 0.214009 0.668767
vt 0.275569 0.702670
vt 0.267374 0.681349
vt 0.273008 0.674769
vt 0.282308 0.698651
vt 0.276001 0.731116
vt 0.282851 0.730387
vt 0.254016 0.804407
vt 0.272070 0.782837
vt 0.278354 0.788132
vt 0.258103 0.812246
vt 0.226006 0.815454
vt 0.226755 0.824547
vt 0.194538 0.808784
vt 0.191571 0.817146
vt 0.243816 0.674112
vt 0.246610 0.666558
vt 0.164315 0.711977
vt 0.157643 0.708914
vt 0.276957 0.758147
vt 0.283892 0.760526
vt 0.500000 0.500000
vt 0.500000 0.619963
vt 0.619963 0.619963
vt 0.619963 0.500000
vt 0.739927 0.619963
vt 0.739927 0.500000
vt 0.619963 0.739927
vt 0.739927 0.739927
vt 0.500000 0.739927
vt 0.500000 0.260074
vt 0.500000 0.380037
vt 0.619963 0.380037
vt 0.619963 0.260074
vt 0.739927 0.380037
vt 0.739927 0.260074
vt 0.260074 0.260074
vt 0.260074 0.380037
vt 0.380037 0.380037
vt 0.380037 0.260074
vt 0.380037 0.500000
vt 0.260074 0.500000
vt 0.260074 0.619963
vt 0.380037 0.619963
vt 0.380037 0.739927
vt 0.260074 0.739927
vt 0.232157 0.755459
vt 0.233469 0.748716
vt 0.235616 0.749453
vt 0.234103 0.757098
vt 0.233199 0.741307
vt 0.235320 0.741082
vt 0.205932 0.730781
vt 0.202800 0.736104
vt 0.200734 0.735155
vt 0.204311 0.729123
vt 0.200979 0.743016
vt 0.198679 0.742993
vt 0.230904 0.727708
vt 0.224488 0.725769
vt 0.225353 0.723429
vt 0.232649 0.725670
vt 0.216525 0.726341
vt 0.216324 0.724057
vt 0.204129 0.757289
vt 0.211012 0.762545
vt 0.210093 0.765134
vt 0.202282 0.759182
vt 0.219606 0.764383
vt 0.219838 0.767199
vt 0.227246 0.761350
vt 0.228512 0.763778
vt 0.233100 0.733518
vt 0.235186 0.732273
vt 0.210338 0.727815
vt 0.209309 0.725742
vt 0.201041 0.750410
vt 0.198761 0.751378
vn 0.0000 0.0000 1.0000
vn -0.1226 -0.1391 0.9827
vn -0.1293 0.0778 0.9885
vn -0.0377 -0.1922 0.9806
vn -0.1513 -0.0690 0.9861
vn -0.0676 0.1414 0.9876
vn -0.0875 -0.1745 0.9808
vn 0.0064 0.1717 0.9851
vn 0.1339 0.1524 0.9792
vn 0.1525 0.0824 0.9849
vn 0.1487 -0.0732 0.9862
vn 0.1062 -0.1594 0.9815
vn 0.1264 -0.1372 0.9825
vn 0.0982 0.1685 0.9808
vn 0.0446 -0.1867 0.9814
vn -0.1537 0.0134 0.9880
vn 0.1392 0.1487 0.9790
vn -0.3350 -0.1469 0.9307
vn -0.2658 -0.2899 0.9194
vn 0.0950 -0.3823 0.9191
vn 0.2276 -0.3285 0.9167
vn 0.3365 0.1747 0.9253
vn 0.2875 0.3148 0.9046
vn 0.0138 0.3561 0.9343
vn -0.1480 0.2979 0.9431
vn -0.2876 0.1665 0.9432
vn -0.3436 0.0288 0.9387
vn 0.2738 -0.2858 0.9183
vn 0.3293 -0.1558 0.9313
vn -0.1868 -0.3584 0.9147
vn -0.0800 -0.3925 0.9163
vn 0.2968 0.3047 0.9050
vn 0.2091 0.3450 0.9150
vn 0.0000 0.0000 -1.0000
vn 0.0000 0.0001 -1.0000
usemtl Material
s off
f 9/1/1 19/2/1 22/3/1 21/4/1
f 19/2/1 6/5/1 12/6/1 22/3/1
f 22/3/1 12/6/1 4/7/1 18/8/1
f 21/4/1 22/3/1 18/8/1 8/9/1
f 7/10/1 11/11/1 23/12/1 20/13/1
f 11/11/1 2/14/1 15/15/1 23/12/1
f 23/12/1 15/15/1 6/5/1 19/2/1
f 20/13/1 23/12/1 19/2/1 9/1/1
f 1/16/1 17/17/1 24/18/1 10/19/1
f 17/17/1 7/10/1 20/13/1 24/18/1
f 24/18/1 20/13/1 9/1/1 16/20/1
f 10/19/1 24/18/1 16/20/1 5/21/1
f 5/21/1 16/20/1 25/22/1 14/23/1
f 16/20/1 9/1/1 21/4/1 25/22/1
f 25/22/1 21/4/1 8/9/1 13/24/1
f 14/23/1 25/22/1 13/24/1 3/25/1
f 26/26/2 34/27/2 43/28/2 44/29/2
f 38/30/3 28/31/3 53/32/3 54/33/3
f 32/34/4 40/35/4 58/36/4 45/37/4
f 34/27/5 30/38/5 42/39/5 43/28/5
f 28/31/6 37/40/6 52/41/6 53/32/6
f 40/35/7 26/26/7 44/29/7 58/36/7
f 37/40/8 33/42/8 51/43/8 52/41/8
f 29/44/9 36/45/9 49/46/9 50/47/9
f 36/45/10 31/48/10 48/49/10 49/46/10
f 31/48/11 39/50/11 55/51/11 48/49/11
f 27/52/12 35/53/12 46/54/12 47/55/12
f 39/50/13 27/52/13 47/55/13 55/51/13
f 33/42/14 41/56/14 59/57/14 51/43/14
f 35/53/15 32/34/15 45/37/15 46/54/15
f 30/38/16 38/30/16 54/33/16 42/39/16
f 41/56/17 29/44/17 50/47/17 59/57/17
f 75/58/18 71/59/18 30/60/18 34/61/18
f 67/62/19 75/58/19 34/61/19 26/63/19
f 76/64/20 73/65/20 32/66/20 35/67/20
f 68/68/21 76/64/21 35/67/21 27/69/21
f 77/70/22 72/71/22 31/72/22 36/73/22
f 70/74/23 77/70/23 36/73/23 29/75/23
f 78/76/24 74/77/24 33/78/24 37/79/24
f 69/80/25 78/76/25 37/79/25 28/81/25
f 79/82/26 69/80/26 28/81/26 38/83/26
f 71/59/27 79/82/27 38/83/27 30/60/27
f 80/84/28 68/68/28 27/69/28 39/85/28
f 72/71/29 80/84/29 39/85/29 31/72/29
f 81/86/30 67/62/30 26/63/30 40/87/30
f 73/65/31 81/86/31 40/87/31 32/66/31
f 82/88/32 70/74/32 29/75/32 41/89/32
f 74/77/33 82/88/33 41/89/33 33/78/33
f 56/90/34 62/91/34 63/92/34 60/93/34
f 60/93/34 63/92/34 49/94/34 48/95/34
f 63/92/35 59/96/35 50/97/35 49/94/35
f 62/91/34 51/98/34 59/96/34 63/92/34
f 45/99/34 61/100/34 64/101/34 46/102/34
f 46/102/34 64/101/34 55/103/34 47/104/34
f 64/101/34 60/93/34 48/95/34 55/103/34
f 61/100/34 56/90/34 60/93/34 64/101/34
f 44/105/34 43/106/34 65/107/34 58/108/34
f 58/108/34 65/107/34 61/100/34 45/99/34
f 65/107/34 57/109/34 56/90/34 61/100/34
f 43/106/34 42/110/34 57/109/34 65/107/34
f 42/110/34 54/111/34 66/112/34 57/109/34
f 57/109/34 66/112/34 62/91/34 56/90/34
f 66/112/34 52/113/34 51/98/34 62/91/34
f 54/111/34 53/114/34 52/113/34 66/112/34
f 8/115/33 18/116/33 82/117/33 74/118/33
f 18/116/32 4/119/32 70/120/32 82/117/32
f 7/121/31 17/122/31 81/123/31 73/124/31
f 17/122/30 1/125/30 67/126/30 81/123/30
f 6/127/29 15/128/29 80/129/29 72/130/29
f 15/128/28 2/131/28 68/132/28 80/129/28
f 5/133/27 14/134/27 79/135/27 71/136/27
f 14/134/26 3/137/26 69/138/26 79/135/26
f 3/137/25 13/139/25 78/140/25 69/138/25
f 13/139/24 8/115/24 74/118/24 78/140/24
f 4/119/23 12/141/23 77/142/23 70/120/23
f 12/141/22 6/127/22 72/130/22 77/142/22
f 2/131/21 11/143/21 76/144/21 68/132/21
f 11/143/20 7/121/20 73/124/20 76/144/20
f 1/125/19 10/145/19 75/146/19 67/126/19
f 10/145/18 5/133/18 71/136/18 75/146/18
