# Blender v2.93.4 OBJ File: 'island.blend'
# www.blender.org
mtllib Grass.mtl
o Cube.069_Cube.019
v -0.072601 -0.701072 -0.043827
v -0.072601 1.169671 -0.919197
v -0.072601 -0.701072 -0.126225
v -0.072601 1.109344 -0.975323
v 0.222828 -0.701072 -0.043827
v 0.222828 1.169671 -0.919197
v 0.222828 -0.701072 -0.126225
v 0.222828 1.109344 -0.975323
v -0.072601 0.488513 -0.187060
v -0.072601 0.428186 -0.243186
v 0.222828 0.428186 -0.243186
v 0.222828 0.488513 -0.187060
vt 0.500000 0.000000
vt 0.625000 0.000000
vt 0.625000 0.250000
vt 0.500000 0.250000
vt 0.625000 0.500000
vt 0.500000 0.500000
vt 0.625000 0.750000
vt 0.500000 0.750000
vt 0.625000 1.000000
vt 0.500000 1.000000
vt 0.125000 0.500000
vt 0.375000 0.500000
vt 0.375000 0.750000
vt 0.125000 0.750000
vt 0.875000 0.500000
vt 0.875000 0.750000
vt 0.375000 1.000000
vt 0.375000 0.250000
vt 0.375000 0.000000
vn -1.0000 0.0000 0.0000
vn 0.0000 -0.7321 -0.6812
vn 1.0000 0.0000 0.0000
vn 0.0000 0.7321 0.6812
vn 0.0000 -1.0000 0.0000
vn 0.0000 0.6812 -0.7321
vn 0.0000 0.1195 0.9928
vn 0.0000 -0.1030 -0.9947
usemtl None
s off
f 9/1/1 2/2/1 4/3/1 10/4/1
f 10/4/2 4/3/2 8/5/2 11/6/2
f 11/6/3 8/5/3 6/7/3 12/8/3
f 12/8/4 6/7/4 2/9/4 9/10/4
f 3/11/5 7/12/5 5/13/5 1/14/5
f 8/5/6 4/15/6 2/16/6 6/7/6
f 5/13/7 12/8/7 9/10/7 1/17/7
f 7/12/3 11/6/3 12/8/3 5/13/3
f 3/18/8 10/4/8 11/6/8 7/12/8
f 1/19/1 9/1/1 10/4/1 3/18/1
o Cube.167_Cube.021
v 0.162260 -0.571427 -0.134631
v 1.120571 1.258173 -0.146939
v 0.244567 -0.575123 -0.135789
v 1.173929 1.195390 -0.147728
v 0.166410 -0.571614 0.160769
v 1.124720 1.257987 0.148460
v 0.248717 -0.575309 0.159610
v 1.178079 1.195204 0.147671
v 0.358691 0.610537 -0.136645
v 0.412049 0.547753 -0.137434
v 0.416199 0.547567 0.157966
v 0.362841 0.610350 0.158755
vt 0.500000 0.000000
vt 0.625000 0.000000
vt 0.625000 0.250000
vt 0.500000 0.250000
vt 0.625000 0.500000
vt 0.500000 0.500000
vt 0.625000 0.750000
vt 0.500000 0.750000
vt 0.625000 1.000000
vt 0.500000 1.000000
vt 0.125000 0.500000
vt 0.375000 0.500000
vt 0.375000 0.750000
vt 0.125000 0.750000
vt 0.875000 0.500000
vt 0.875000 0.750000
vt 0.375000 1.000000
vt 0.375000 0.250000
vt 0.375000 0.000000
vn -0.0140 0.0006 -0.9999
vn 0.6476 -0.7619 -0.0096
vn 0.0140 -0.0006 0.9999
vn -0.6476 0.7619 0.0096
vn -0.0449 -0.9990 -0.0000
vn 0.7619 0.6476 -0.0103
vn -0.9864 0.1639 0.0140
vn 0.9890 -0.1475 -0.0140
usemtl None
s off
f 21/20/9 14/21/9 16/22/9 22/23/9
f 22/23/10 16/22/10 20/24/10 23/25/10
f 23/25/11 20/24/11 18/26/11 24/27/11
f 24/27/12 18/26/12 14/28/12 21/29/12
f 15/30/13 19/31/13 17/32/13 13/33/13
f 20/24/14 16/34/14 14/35/14 18/26/14
f 17/32/15 24/27/15 21/29/15 13/36/15
f 19/31/11 23/25/11 24/27/11 17/32/11
f 15/37/16 22/23/16 23/25/16 19/31/16
f 13/38/9 21/20/9 22/23/9 15/37/9
o Cube.169_Cube.036
v 0.006404 -0.696026 0.106545
v -0.589240 0.606059 -0.021634
v -0.049663 -0.696026 0.094479
v -0.627431 0.564070 -0.029852
v 0.049663 -0.696026 -0.094479
v -0.545981 0.606059 -0.222658
v -0.006404 -0.696026 -0.106545
v -0.584172 0.564070 -0.230876
v -0.091058 0.131956 0.085572
v -0.129249 0.089967 0.077353
v -0.085990 0.089967 -0.123671
v -0.047799 0.131956 -0.115453
vt 0.500000 0.000000
vt 0.625000 0.000000
vt 0.625000 0.250000
vt 0.500000 0.250000
vt 0.625000 0.500000
vt 0.500000 0.500000
vt 0.625000 0.750000
vt 0.500000 0.750000
vt 0.625000 1.000000
vt 0.500000 1.000000
vt 0.125000 0.500000
vt 0.375000 0.500000
vt 0.375000 0.750000
vt 0.125000 0.750000
vt 0.875000 0.500000
vt 0.875000 0.750000
vt 0.375000 1.000000
vt 0.375000 0.250000
vt 0.375000 0.000000
vn -0.2104 -0.0000 0.9776
vn -0.6659 -0.7321 -0.1433
vn 0.2104 0.0000 -0.9776
vn 0.6659 0.7321 0.1433
vn 0.0000 -1.0000 0.0000
vn -0.7158 0.6812 -0.1540
vn 0.9706 0.1195 0.2089
vn -0.9724 -0.1030 -0.2093
usemtl None
s off
f 33/39/17 26/40/17 28/41/17 34/42/17
f 34/42/18 28/41/18 32/43/18 35/44/18
f 35/44/19 32/43/19 30/45/19 36/46/19
f 36/46/20 30/45/20 26/47/20 33/48/20
f 27/49/21 31/50/21 29/51/21 25/52/21
f 32/43/22 28/53/22 26/54/22 30/45/22
f 29/51/23 36/46/23 33/48/23 25/55/23
f 31/50/19 35/44/19 36/46/19 29/51/19
f 27/56/24 34/42/24 35/44/24 31/50/24
f 25/57/17 33/39/17 34/42/17 27/56/17
o Cube.168_Cube.027
v 0.115717 -0.735504 0.118243
v -0.253680 0.371775 0.481560
v 0.080946 -0.735504 0.152442
v -0.277365 0.336068 0.504855
v -0.006899 -0.735504 -0.006425
v -0.376296 0.371775 0.356892
v -0.041670 -0.735504 0.027774
v -0.399981 0.336068 0.380187
v 0.055274 -0.031397 0.177691
v 0.031589 -0.067104 0.200986
v -0.091027 -0.067104 0.076318
v -0.067342 -0.031397 0.053023
vt 0.500000 0.000000
vt 0.625000 0.000000
vt 0.625000 0.250000
vt 0.500000 0.250000
vt 0.625000 0.500000
vt 0.500000 0.500000
vt 0.625000 0.750000
vt 0.500000 0.750000
vt 0.625000 1.000000
vt 0.500000 1.000000
vt 0.125000 0.500000
vt 0.375000 0.500000
vt 0.375000 0.750000
vt 0.125000 0.750000
vt 0.875000 0.500000
vt 0.875000 0.750000
vt 0.375000 1.000000
vt 0.375000 0.250000
vt 0.375000 0.000000
vn 0.7012 -0.0000 0.7129
vn -0.4856 -0.7321 0.4776
vn -0.7012 0.0000 -0.7129
vn 0.4856 0.7321 -0.4776
vn 0.0000 -1.0000 0.0000
vn -0.5220 0.6812 0.5134
vn 0.7078 0.1195 -0.6962
vn -0.7092 -0.1030 0.6975
usemtl None
s off
f 45/58/25 38/59/25 40/60/25 46/61/25
f 46/61/26 40/60/26 44/62/26 47/63/26
f 47/63/27 44/62/27 42/64/27 48/65/27
f 48/65/28 42/64/28 38/66/28 45/67/28
f 39/68/29 43/69/29 41/70/29 37/71/29
f 44/62/30 40/72/30 38/73/30 42/64/30
f 41/70/31 48/65/31 45/67/31 37/74/31
f 43/69/27 47/63/27 48/65/27 41/70/27
f 39/75/32 46/61/32 47/63/32 43/69/32
f 37/76/25 45/58/25 46/61/25 39/75/25
o Cube.170_Cube.043
v 0.165385 -0.696026 0.087178
v 0.263245 0.606059 0.688547
v 0.174596 -0.696026 0.143785
v 0.269520 0.564070 0.727106
v -0.037572 -0.696026 0.120205
v 0.060289 0.606059 0.721574
v -0.028360 -0.696026 0.176812
v 0.066563 0.564070 0.760133
v 0.181397 0.131956 0.185577
v 0.187672 0.089967 0.224136
v -0.015285 0.089967 0.257163
v -0.021559 0.131956 0.218604
vt 0.500000 0.000000
vt 0.625000 0.000000
vt 0.625000 0.250000
vt 0.500000 0.250000
vt 0.625000 0.500000
vt 0.500000 0.500000
vt 0.625000 0.750000
vt 0.500000 0.750000
vt 0.625000 1.000000
vt 0.500000 1.000000
vt 0.125000 0.500000
vt 0.375000 0.500000
vt 0.375000 0.750000
vt 0.125000 0.750000
vt 0.875000 0.500000
vt 0.875000 0.750000
vt 0.375000 1.000000
vt 0.375000 0.250000
vt 0.375000 0.000000
vn 0.9870 0.0000 -0.1606
vn 0.1094 -0.7321 0.6723
vn -0.9870 -0.0000 0.1606
vn -0.1094 0.7321 -0.6723
vn 0.0000 -1.0000 0.0000
vn 0.1176 0.6812 0.7226
vn -0.1595 0.1195 -0.9799
vn 0.1598 -0.1030 0.9818
usemtl None
s off
f 57/77/33 50/78/33 52/79/33 58/80/33
f 58/80/34 52/79/34 56/81/34 59/82/34
f 59/82/35 56/81/35 54/83/35 60/84/35
f 60/84/36 54/83/36 50/85/36 57/86/36
f 51/87/37 55/88/37 53/89/37 49/90/37
f 56/81/38 52/91/38 50/92/38 54/83/38
f 53/89/39 60/84/39 57/86/39 49/93/39
f 55/88/35 59/82/35 60/84/35 53/89/35
f 51/94/40 58/80/40 59/82/40 55/88/40
f 49/95/33 57/77/33 58/80/33 51/94/33
